<svg height="512" viewBox="0 0 74 74" width="512" xmlns="http://www.w3.org/2000/svg"><g id="Icons"><path d="m61.509 42.716a1 1 0 0 1 -.209-1.976c3.062-.674 5.284-4.065 5.284-8.065 0-3.762-2.067-7.113-4.915-7.969a1 1 0 0 1 -.7-1.114 9.788 9.788 0 0 0 .122-1.533c0-4.2-2.644-7.622-5.893-7.622a4.713 4.713 0 0 0 -2.327.63 1 1 0 0 1 -1.478-.716c-.495-3.143-2.644-5.424-5.11-5.424a4.136 4.136 0 0 0 -1.867.464 1 1 0 0 1 -1.383-.536c-1.133-2.949-3.501-4.855-6.033-4.855s-4.9 1.906-6.027 4.855a1 1 0 0 1 -1.383.536 4.136 4.136 0 0 0 -1.867-.464c-2.466 0-4.615 2.281-5.11 5.424a1 1 0 0 1 -1.478.716 4.713 4.713 0 0 0 -2.327-.63c-3.249 0-5.893 3.419-5.893 7.622a9.788 9.788 0 0 0 .122 1.533 1 1 0 0 1 -.7 1.114c-2.848.856-4.915 4.207-4.915 7.969 0 4 2.222 7.391 5.284 8.065a1 1 0 0 1 -.43 1.953c-3.976-.873-6.855-5.087-6.855-10.018 0-4.355 2.24-8.165 5.539-9.592-.03-.342-.045-.684-.045-1.024 0-5.306 3.541-9.622 7.893-9.622a6.529 6.529 0 0 1 2.107.349c1-3.461 3.713-5.859 6.808-5.859a5.9 5.9 0 0 1 1.788.279c1.559-3.194 4.412-5.206 7.489-5.206s5.93 2.012 7.489 5.206a5.9 5.9 0 0 1 1.788-.279c3.095 0 5.808 2.4 6.808 5.859a6.529 6.529 0 0 1 2.107-.349c4.352 0 7.893 4.316 7.893 9.622 0 .34-.015.682-.045 1.024 3.3 1.427 5.539 5.237 5.539 9.592 0 4.931-2.883 9.145-6.854 10.018a.992.992 0 0 1 -.216.023z"/><path d="m36.723 71.993a70.16 70.16 0 0 1 -13.749-1.349 6.649 6.649 0 0 1 -5.209-5.2l-6.242-23.471a1 1 0 0 1 1.177-1.234 114.513 114.513 0 0 0 48.6 0 1 1 0 0 1 1.178 1.234l-6.248 23.486a6.614 6.614 0 0 1 -5.24 5.151 75.45 75.45 0 0 1 -14.267 1.383zm-22.85-28.967 5.838 21.96a4.679 4.679 0 0 0 3.654 3.7 70.532 70.532 0 0 0 27.247-.037 4.645 4.645 0 0 0 3.672-3.649l5.843-21.975a116.37 116.37 0 0 1 -46.254.001z"/><path d="m23.722 70.768a1 1 0 0 1 -.993-.89l-2.959-26.569a1 1 0 1 1 1.987-.222l2.96 26.57a1 1 0 0 1 -.883 1.1.853.853 0 0 1 -.112.011z"/><path d="m30.413 71.708a1 1 0 0 1 -1-.945l-1.48-26.64a1 1 0 1 1 2-.111l1.48 26.64a1 1 0 0 1 -.943 1.054z"/><path d="m37 72a1 1 0 0 1 -1-1v-26.643a1 1 0 0 1 2 0v26.643a1 1 0 0 1 -1 1z"/><path d="m43.584 71.667h-.057a1 1 0 0 1 -.942-1.055l1.49-26.6a1 1 0 0 1 2 .113l-1.49 26.6a1 1 0 0 1 -1.001.942z"/><path d="m50.285 70.718a.868.868 0 0 1 -.113-.007 1 1 0 0 1 -.882-1.1l2.96-26.52a1 1 0 1 1 1.987.222l-2.96 26.52a1 1 0 0 1 -.992.885z"/><path d="m33.208 14.67a1 1 0 0 1 -.928-1.37 2.72 2.72 0 0 1 2.928-1.37 1 1 0 0 1 -.243 1.985 1.386 1.386 0 0 0 -.828.129 1 1 0 0 1 -.929.626z"/><path d="m21.848 23.358a1 1 0 0 1 -.929-1.372 2.72 2.72 0 0 1 2.928-1.37 1 1 0 0 1 -.242 1.985 1.393 1.393 0 0 0 -.829.128 1 1 0 0 1 -.928.629z"/><path d="m46.066 18.764a1 1 0 0 1 -.609-.207 1.341 1.341 0 0 0 -.778-.314 1 1 0 0 1 -1.214-1.589 2.721 2.721 0 0 1 3.216.321 1 1 0 0 1 -.615 1.789z"/><path d="m56.98 30.28a1 1 0 0 1 -.61-.208 1.369 1.369 0 0 0 -.777-.313 1 1 0 0 1 -1.215-1.589 2.721 2.721 0 0 1 3.217.321 1 1 0 0 1 -.615 1.789z"/><path d="m46.066 37.17a1 1 0 0 1 -.609-.208 1.337 1.337 0 0 0 -.778-.313 1 1 0 0 1 -1.214-1.589 2.719 2.719 0 0 1 3.216.321 1 1 0 0 1 -.615 1.789z"/><path d="m19.542 35.155a.993.993 0 0 1 -.609-.208 1.352 1.352 0 0 0 -.778-.313 1 1 0 0 1 -1.214-1.589 2.718 2.718 0 0 1 3.216.321 1 1 0 0 1 -.615 1.789z"/><path d="m35.072 26.542a1 1 0 0 1 -.752-1.658 2.718 2.718 0 0 1 3.216-.325 1 1 0 0 1 -.885 1.793 1.388 1.388 0 0 0 -.825-.153 1 1 0 0 1 -.754.343z"/><path d="m27.924 37.351a1 1 0 0 1 -.752-1.658c.924-1.059 2.456-.7 3.216-.325a1 1 0 0 1 -.887 1.793 1.388 1.388 0 0 0 -.824-.152 1 1 0 0 1 -.753.342z"/></g></svg>