<svg height="512" viewBox="0 0 74 74" width="512" xmlns="http://www.w3.org/2000/svg"><g id="Icons"><path d="m43.707 62.194h-21.354a1 1 0 0 1 -.534-.154c-9.813-6.193-16.154-19.982-16.154-35.131 0-1.652.082-3.368.245-5.1a1 1 0 0 1 1-.907h52.25a1 1 0 0 1 .995.907c.163 1.736.246 3.452.246 5.1 0 15.148-6.341 28.938-16.155 35.131a1 1 0 0 1 -.539.154zm-21.061-2h20.769c9.109-5.91 14.985-18.933 14.985-33.285 0-1.3-.053-2.644-.159-4.008h-50.418c-.105 1.362-.158 2.706-.158 4.008 0 14.352 5.871 27.375 14.981 33.285z"/><path d="m50.745 55.676a1 1 0 0 1 -.182-1.983c8.851-1.648 16.137-8.866 18.507-14.821.952-2.394 1.66-5.833-.369-8.615-2.013-2.771-5.024-3.4-8.95-1.865a1 1 0 1 1 -.727-1.863c4.81-1.879 8.715-1 11.294 2.551 2 2.744 2.219 6.484.611 10.531-2.628 6.614-10.342 14.25-20 16.048a.962.962 0 0 1 -.184.017z"/><path d="m17.7 19.222a1 1 0 0 1 -.73-1.683c.031-.038 1.068-1.286.1-3.871-1.432-3.817 1.717-7.14 1.852-7.279a1 1 0 0 1 1.44 1.387c-.058.061-2.4 2.583-1.419 5.19 1.428 3.807-.433 5.854-.512 5.94a1 1 0 0 1 -.731.316z"/><path d="m27.274 15.952a1 1 0 0 1 -.73-1.683c.031-.038 1.068-1.286.1-3.871-1.433-3.818 1.716-7.14 1.856-7.28a1 1 0 0 1 1.441 1.388c-.045.047-2.4 2.575-1.42 5.19 1.428 3.807-.433 5.854-.512 5.94a1 1 0 0 1 -.735.316z"/><path d="m36.846 19.222a1 1 0 0 1 -.73-1.683c.031-.038 1.068-1.286.1-3.871-1.432-3.817 1.717-7.14 1.852-7.279a1 1 0 0 1 1.44 1.387c-.058.061-2.4 2.583-1.419 5.19 1.428 3.807-.433 5.854-.512 5.94a1 1 0 0 1 -.731.316z"/><path d="m46.418 19.17a1 1 0 0 1 -.73-1.684c.031-.037 1.068-1.285.1-3.87-1.433-3.816 1.712-7.14 1.851-7.28a1 1 0 0 1 1.441 1.388c-.045.047-2.4 2.575-1.42 5.19 1.428 3.807-.432 5.854-.512 5.94a1 1 0 0 1 -.73.316z"/><path d="m54.629 71.187h-43.2a9.441 9.441 0 0 1 -9.429-9.431v-.562a1 1 0 0 1 1-1h60.06a1 1 0 0 1 1 1v.562a9.441 9.441 0 0 1 -9.431 9.431zm-50.616-8.993a7.44 7.44 0 0 0 7.418 6.993h43.2a7.44 7.44 0 0 0 7.418-6.993z"/></g></svg>