<svg height="512" viewBox="0 0 74 74" width="512" xmlns="http://www.w3.org/2000/svg"><g id="Icons"><path d="m19.567 68.86a19.341 19.341 0 0 1 -2.875-.217 17.1 17.1 0 0 1 -14.53-14.2 15.9 15.9 0 0 1 .953-8.154 12.607 12.607 0 0 0 -.01-9.616 13.8 13.8 0 0 1 -1.105-5.422 14.524 14.524 0 0 1 8.992-13.238 15.4 15.4 0 0 0 6.816-6.138 14.747 14.747 0 0 1 12.551-6.733 15.11 15.11 0 0 1 8.219 2.4 15.141 15.141 0 0 0 11.776 1.623 18.483 18.483 0 0 1 6.546-.338 17.011 17.011 0 0 1 14.914 14.015 15.953 15.953 0 0 1 -3.657 12.847 13.55 13.55 0 0 0 -2.857 11.411 16.138 16.138 0 0 1 .077 5.688 17.156 17.156 0 0 1 -14.761 13.881 18.519 18.519 0 0 1 -9.322-1.11 15.046 15.046 0 0 0 -12.839.977 17.954 17.954 0 0 1 -8.888 2.324zm10.792-61.718a12.754 12.754 0 0 0 -10.859 5.808 17.355 17.355 0 0 1 -7.715 6.9 12.53 12.53 0 0 0 -7.785 11.401 11.8 11.8 0 0 0 .946 4.643 14.59 14.59 0 0 1 .029 11.133 13.926 13.926 0 0 0 -.833 7.14 15.088 15.088 0 0 0 12.848 12.5 16.2 16.2 0 0 0 10.482-1.867 17.056 17.056 0 0 1 14.561-1.1 16.552 16.552 0 0 0 8.315.987 15.145 15.145 0 0 0 13.052-12.223 14.184 14.184 0 0 0 -.066-4.985 15.536 15.536 0 0 1 3.296-13.079 13.983 13.983 0 0 0 3.207-11.257 15.006 15.006 0 0 0 -13.186-12.331 16.466 16.466 0 0 0 -5.839.3 17.1 17.1 0 0 1 -13.319-1.89 13.112 13.112 0 0 0 -7.134-2.08z"/><path d="m38.324 46.111c-7.37 0-13.366-5.21-13.366-11.613s6-11.614 13.366-11.614 13.365 5.21 13.365 11.616-5.995 11.611-13.365 11.611zm0-21.227c-6.267 0-11.366 4.313-11.366 9.614s5.1 9.613 11.366 9.613 11.365-4.311 11.365-9.611-5.098-9.616-11.365-9.616z"/></g></svg>