<svg height="512" viewBox="0 0 74 74" width="512" xmlns="http://www.w3.org/2000/svg"><g id="Icons"><path d="m68.625 72h-63.255a3.374 3.374 0 0 1 -3.37-3.37v-63.255a3.319 3.319 0 0 1 2.08-3.114 3.318 3.318 0 0 1 3.673.731l63.255 63.255a3.37 3.37 0 0 1 -2.383 5.753zm-63.225-68a1.463 1.463 0 0 0 -.549.109 1.343 1.343 0 0 0 -.851 1.266v63.255a1.372 1.372 0 0 0 1.37 1.37h63.255a1.37 1.37 0 0 0 .969-2.339l-63.255-63.255a1.3 1.3 0 0 0 -.939-.406z"/><path d="m66.478 64.135a1 1 0 0 1 -.707-.293l-56.849-56.848a1 1 0 0 1 0-1.414 5.965 5.965 0 0 1 1.829-1.18c5.44-2.377 10.169-2.463 14.05-.256 2.08 1.191 1.7 3.88 1.443 5.659l-.042.3c-.32 2.368-.037 4.1.865 5.3 1.1 1.461 3.131 2.142 4.968 2.616l.7.173a15.451 15.451 0 0 1 5.627 2.192 14.007 14.007 0 0 1 3.9 5.312 19.092 19.092 0 0 0 2.1 3.486 19.89 19.89 0 0 0 5.614 4.164 3.465 3.465 0 0 1 1.2 1.012 3.233 3.233 0 0 1 .433 1.584 7.943 7.943 0 0 0 1.928 4.626 8.744 8.744 0 0 0 4.438 2.754c.388.092.79.2 1.2.306l.243.064a13.621 13.621 0 0 1 3.17 1.122c.863.467 8.472 4.771 8.392 11.1a9.878 9.878 0 0 1 -3.887 8.011 1 1 0 0 1 -.615.21zm-55.308-57.722 55.359 55.359a7.855 7.855 0 0 0 2.452-5.888c.065-5.147-6.59-8.9-7.349-9.312a11.986 11.986 0 0 0 -2.721-.944l-.246-.065c-.391-.1-.777-.205-1.171-.3a10.77 10.77 0 0 1 -5.471-3.392 9.936 9.936 0 0 1 -2.405-5.791 1.8 1.8 0 0 0 -.112-.628 2.218 2.218 0 0 0 -.527-.375 21.362 21.362 0 0 1 -6.157-4.628 20.923 20.923 0 0 1 -2.335-3.841 12.335 12.335 0 0 0 -3.305-4.608 13.985 13.985 0 0 0 -4.92-1.862l-.721-.179c-2.177-.561-4.595-1.4-6.07-3.348-1.236-1.64-1.645-3.856-1.251-6.776l.044-.314c.253-1.77.379-3.163-.454-3.64-3.3-1.881-7.428-1.759-12.264.353-.13.056-.256.116-.376.179z"/><path d="m7.692 26.616a1 1 0 0 1 -.608-1.794l5.072-3.876a1 1 0 1 1 1.214 1.589l-5.07 3.876a1 1 0 0 1 -.608.205z"/><path d="m8.938 36.91a1 1 0 0 1 -.607-1.794l11.222-8.575a1 1 0 0 1 1.214 1.588l-11.223 8.576a1 1 0 0 1 -.606.205z"/><path d="m8.175 48.631a1 1 0 0 1 -.608-1.8l19.553-14.931a1 1 0 1 1 1.213 1.589l-19.552 14.936a.993.993 0 0 1 -.606.206z"/><path d="m48.283 65.958a1 1 0 0 1 -.614-1.79l5.04-3.915a1 1 0 0 1 1.227 1.579l-5.036 3.916a1 1 0 0 1 -.617.21z"/><path d="m35.8 64.339a1 1 0 0 1 -.613-1.79l11.153-8.664a1 1 0 1 1 1.226 1.579l-11.152 8.664a.987.987 0 0 1 -.614.211z"/><path d="m22.085 63.274a1 1 0 0 1 -.614-1.789l19.429-15.097a1 1 0 1 1 1.227 1.579l-19.427 15.097a.994.994 0 0 1 -.615.21z"/><path d="m9.452 60.687a1 1 0 0 1 -.626-1.78l25.841-20.718a1 1 0 0 1 1.251 1.561l-25.841 20.717a.994.994 0 0 1 -.625.22z"/></g></svg>