<svg height="432pt" viewBox="-37 0 432 432.22523" width="432pt" xmlns="http://www.w3.org/2000/svg"><path d="m358.945312 143.796875c-.609374-6.234375-4.320312-11.601563-9.917968-14.355469-86.363282-42.425781-138.992188 35.332032-145.226563 45.222656l-8.023437 7.925782v-32.765625c17.914062-.320313 39.289062-16.246094 61.164062-46.296875 21.53125-29.578125 12.597656-75.347656 1.773438-91.589844-5.085938-7.625-12.480469-11.753906-21.386719-11.9375-19.265625-.203125-41.863281 18.273438-55.464844 36.957031-9.953125 13.675781-17.242187 35.199219-19.023437 56.171875-.609375 7.175782-.789063 17.289063 1.308594 27.03125-2.394532-6.488281-5.695313-13.664062-9.9375-21.542968-27.070313-50.269532-55.707032-61.386719-70.367188-63.539063-10.875-1.609375-20.714844.796875-26.320312 6.398437-13.394532 13.390626 1.992187 40.285157 3.988281 43.625 1.277343 2.230469 21.480469 36.945313 52.019531 62.394532 10.5 8.753906 24.003906 15.195312 35.207031 15.195312 2.703125 0 5.265625-.390625 7.625-1.199218l25.757813 40.609374v37.363282l-14.371094-28.746094c-.402344-.800781-.945312-1.480469-1.574219-2.042969-18.875-30.832031-49.4375-52.960937-60.335937-60.222656-13.175782-8.78125-28.664063-13.949219-44.78125-14.941406-21.382813-1.34375-42.027344 6.863281-56.710938 22.429687-2.929687 3.105469-4.4296872 7.171875-4.214844 11.449219.214844 4.234375 2.167969 8.253906 5.367188 11.027344 38.320312 33.21875 68.015625 40.089843 96.734375 46.738281 9.167969 2.125 17.824219 4.128906 26.816406 6.972656 33.179688 10.496094 39.210938 12.910156 40.089844 13.292969.285156.148437.582031.273437.882813.378906l11.292968 22.585938h-74.285156c-2 0-3.902344.878906-5.199219 2.398437-1.296875 1.523438-1.863281 3.539063-1.542969 5.515625l19.847657 122.882813 4.410156 27.304687c.53125 3.308594 3.390625 5.738281 6.738281 5.738281h117.070313c3.351562 0 6.207031-2.429687 6.742187-5.738281l4.410156-27.304687 19.847657-122.882813c.320312-1.976562-.25-3.992187-1.542969-5.515625-1.296875-1.519531-3.199219-2.398437-5.199219-2.398437h-76.835937v-66.609375l14.835937-14.652344c15.492188 6.125 30.605469 8.613281 44.914063 8.613281 43.734375 0 79.929687-23.105469 96.324218-35.628906 5.0625-3.871094 7.714844-9.96875 7.09375-16.3125zm-182.503906-49.515625c1.558594-18.34375 8.019532-37.691406 16.460938-49.289062 13.277344-18.242188 31.621094-31.34375 43.800781-31.34375.113281 0 .230469 0 .34375.003906 4.425781.09375 7.703125 1.953125 10.304687 5.863281 9.078126 13.617187 15.421876 52.804687-1.453124 75.980469-9.058594 12.445312-40.140626 51.949218-59.761719 37.667968-7.660157-5.582031-11.289063-20.113281-9.695313-38.882812zm-23.179687 53.601562c-4.277344 3.492188-18.445313-.410156-30.992188-10.871093-28.953125-24.125-48.746093-58.402344-48.945312-58.746094-.019531-.035156-.046875-.078125-.070313-.117187-5.1875-8.683594-10.1875-22.910157-6.078125-27.015626 1.214844-1.214843 4.53125-2.894531 10.074219-2.894531 1.394531 0 2.933594.105469 4.609375.351563 9.761719 1.433594 35.183594 9.808594 60.328125 56.503906 15.304688 28.417969 14.160156 40.269531 11.074219 42.789062zm14.351562 5.867188c-.296875-.46875-.652343-.875-1.035156-1.242188 2.726563-5.585937 2.90625-13.15625.574219-22.640624 2.390625 5.613281 5.890625 10.652343 10.953125 14.335937 1.304687.953125 2.644531 1.78125 4.015625 2.488281v29.929688zm-6.53125 74.371094c-6.265625-2.089844-15.175781-4.972656-27.914062-9.007813-9.5-3.007812-18.835938-5.164062-27.859375-7.253906-28.339844-6.5625-55.109375-12.757813-90.863282-43.753906-.550781-.476563-.660156-1.078125-.675781-1.390625-.019531-.375.054688-.921875.507813-1.398438.003906 0 .003906-.003906.003906-.003906 11.0625-11.730469 26.328125-18.277344 42.332031-18.277344 1.199219 0 2.402344.035156 3.605469.109375 13.71875.84375 26.875 5.226563 38.050781 12.671875 11.132813 7.417969 44.355469 31.480469 60.679688 63.839844l.789062 1.574219c.460938.957031.914063 1.917969 1.34375 2.890625zm81.460938 190.453125h-105.445313l-2.203125-13.652344h109.855469zm4.410156-27.304688h-114.265625l-17.640625-109.226562h149.550781zm96.609375-242.011719v.003907c-23.921875 18.273437-70.695312 44.988281-122.996094 26.984375.253906-.75.386719-1.53125.375-2.316406 5.648438-7.410157 15.207032-18.289063 28.25-27.269532 28.722656-19.769531 60.28125-21.4375 93.8125-4.964844 1.84375.90625 2.265625 2.539063 2.355469 3.4375.074219.769532.050781 2.714844-1.796875 4.125zm0 0"/></svg>