<?xml version="1.0" encoding="utf-8"?>
<!-- Generator: Adobe Illustrator 25.0.1, SVG Export Plug-In . SVG Version: 6.00 Build 0)  -->
<svg version="1.1" id="Layer_1" xmlns="http://www.w3.org/2000/svg" xmlns:xlink="http://www.w3.org/1999/xlink" x="0px" y="0px"
	 viewBox="0 0 1366 768" style="enable-background:new 0 0 1366 768;" xml:space="preserve">
<style type="text/css">
	.st0{fill:#FFFFFF;}
</style>
<circle cx="662.25" cy="429.25" r="169.54"/>
<g>
	<path class="st0" d="M664,394.54c22.03,0,39.95,17.92,39.95,39.95s-17.92,39.95-39.95,39.95s-39.95-17.92-39.95-39.95
		S641.97,394.54,664,394.54 M664,392.54c-23.17,0-41.95,18.78-41.95,41.95s18.78,41.95,41.95,41.95s41.95-18.78,41.95-41.95
		S687.16,392.54,664,392.54L664,392.54z"/>
</g>
<g>
	<rect x="721.67" y="390.8" class="st0" width="27.96" height="24.47"/>
</g>
<g>
	<path class="st0" d="M691.28,355.09l6.7,16.85l0.25,0.63h0.68h65.64v125.66H561.88V372.57h53.18h10.49h0.6l0.28-0.53l8.98-16.95
		H691.28 M691.96,354.09h-57.16l-9.26,17.48h-10.49h-54.18v127.66h204.68V371.57h-66.64L691.96,354.09L691.96,354.09z"/>
</g>
<g>
	<path d="M500.4,285.3c-0.33-0.28-0.64-0.65-0.95-1.09c-0.67-0.81-1.3-1.48-1.88-1.99l-3.13-2.74c-0.36-0.31-1.35-1.12-2.97-2.43
		l-2.72-2.12l-0.05-0.04l-0.49-0.43c-0.42-0.37-0.72-0.6-0.87-0.68c-1.43-1.19-2.4-1.93-2.89-2.22c-0.5-0.29-0.97-0.17-1.43,0.35
		l-1.02,1.27c-0.14,0.22-0.37,0.52-0.68,0.88c-0.91,1.04-1.81,1.24-2.68,0.59c-0.69-0.6-0.83-1.45-0.45-2.55
		c0.55-0.56,1.2-1.11,1.96-1.65l1.36-1.06c-0.04-0.55,0.23-1.15,0.8-1.8c0.34-0.39,0.81-0.58,1.39-0.55
		c0.58,0.02,1.07,0.2,1.46,0.55c1.88,1.53,3.63,3,5.22,4.4l3.22,2.64c0.82,0.71,1.5,1.34,2.06,1.89c0.75,0.72,1.6,1.49,2.55,2.32
		c0.62,0.54,1.86,1.46,3.73,2.74l1.06,0.76c0.41,0.13,0.77,0.33,1.1,0.62c0.55,0.49,0.9,1.08,1.04,1.77
		c0.14,0.7,0.01,1.27-0.39,1.73C503.87,287.45,502.42,287.07,500.4,285.3z"/>
	<path d="M499.9,250.5c-0.05-0.43,0.08-0.79,0.4-1.09c0.38-0.36,0.88-0.51,1.5-0.45c0.63,0.06,1.19,0.36,1.7,0.89l1.97,2.16
		c0.75,0.85,1.69,1.87,2.82,3.06l6.52,7.79c0.77,0.94,1.37,1.66,1.79,2.16c0.42,0.5,0.73,0.89,0.94,1.17l1.34,1.69l0.98,1.22
		c2.45,2.57,4.12,4.83,5.01,6.77c0.89,1.94,1.21,4.19,0.96,6.76l-0.98,2.37c-0.85,1.94-1.32,2.99-1.41,3.14
		c-0.13,0.18-0.33,0.41-0.61,0.67c-0.82,0.78-1.63,0.89-2.45,0.35l-0.18-0.19c-0.3-0.31-0.49-0.73-0.57-1.26l1.35-2.36l0.59-1.73
		c-1.12-0.73-2.5-1.81-4.15-3.23c-1.65-1.42-3.1-2.76-4.36-4.02c-0.63-0.66-1.27-1.21-1.94-1.66c-0.66-0.45-1.52-0.94-2.58-1.49
		c-1.57-0.84-3.04-1.71-4.39-2.64c-1.36-0.92-2.93-2.26-4.73-4.02l-3.68-3.49l-3.01-2.97c-1.08-1.13-1.08-2.2-0.01-3.22
		c0.28-0.27,0.64-0.37,1.06-0.3c0.43,0.07,0.78,0.25,1.04,0.53l3.59,3.58c-0.09-0.09,0.94,0.93,3.1,3.06
		c1.46,1.48,2.85,2.69,4.14,3.64c1.29,0.95,2.86,2.05,4.7,3.29c0.91,0.57,1.77,1.15,2.6,1.74c0.83,0.59,1.5,1.15,2,1.68l7.4,7.49
		c0.23-0.52,0.36-0.79,0.39-0.82c0.13-0.36,0.21-0.77,0.24-1.21c0.03-0.44-0.02-0.79-0.14-1.04c-0.06-0.12-0.18-0.44-0.37-0.95
		c-0.19-0.51-0.55-1.11-1.08-1.8c-1.25-1.44-2.7-3.08-4.34-4.93l-9.92-11.55c-2.98-3.32-4.82-5.44-5.5-6.34l-0.94-1.08
		C500.21,251.4,499.95,250.93,499.9,250.5z"/>
	<path d="M540.87,271.02c-0.54-0.02-0.97-0.23-1.29-0.64c-1.64-2.07-3.53-4.36-5.68-6.86c-1.36-1.58-2.66-3.15-3.89-4.71l-1.65-2.09
		l-0.58-0.62c-0.17-0.14-0.35-0.33-0.54-0.57c-0.16-0.2-0.24-0.34-0.23-0.4l-0.16-0.2c-2.26-2.58-5.53-6.57-9.81-11.97l-1.05-1.32
		c-0.3-0.37-0.78-0.29-1.46,0.25c-1.43,1.13-2.62,1.72-3.58,1.76c-0.54,0.09-0.95-0.05-1.25-0.42c-0.24-0.31-0.27-0.7-0.07-1.19
		s0.48-0.88,0.85-1.17c0.31-0.24,1.19-0.83,2.66-1.77c0.17-0.13,0.3-0.21,0.4-0.23c1.08-0.8,2.14-0.93,3.17-0.39
		c1.03,0.54,1.76,1.08,2.19,1.62c2.37,2.99,6.8,8.27,13.29,15.84c3.65,4.19,7.15,8.41,10.51,12.65c0.24,0.31,0.32,0.65,0.23,1.02
		c-0.09,0.38-0.31,0.7-0.64,0.97C541.88,270.89,541.41,271.04,540.87,271.02z"/>
	<path d="M534.83,223.67c0.39,0.16,0.71,0.42,0.94,0.78c0.14,0.22,0.25,0.41,0.31,0.58c1.13,6.48,2.4,11.77,3.83,15.87
		c2,2.16,3.75,4.12,5.23,5.89c2.7,3.36,4.76,5.86,6.2,7.51c1.43,1.65,2.97,3.28,4.61,4.89c0.13,0.59,0.14,1.08,0.03,1.46
		c-0.15,0.41-0.33,0.73-0.57,0.96s-0.64,0.54-1.22,0.93l-1.03,0.68c-3.32,2.21-5.17,3.02-5.56,2.44c-0.19-0.29-0.26-0.66-0.2-1.12
		c0.06-0.46,0.21-0.89,0.45-1.31c1.65-0.89,2.83-1.57,3.56-2.05c0.47-0.31,0.88-0.63,1.23-0.97c-2.33-3.19-5.82-7.32-10.49-12.39
		c-4.67-5.07-9.3-9.66-13.91-13.78c-0.15-0.06-0.55-0.39-1.21-0.99c-1.12-0.82-1.96-1.66-2.54-2.53l0.42-1.6
		c0.61-0.41,1.32-0.44,2.13-0.09c0.8,0.35,1.46,0.9,1.96,1.66c0.17,0.25,0.26,0.43,0.27,0.52c2,1.53,3.96,3.22,5.87,5.08
		c-0.56-1.71-0.88-2.74-0.97-3.1c-0.09-0.61-0.25-1.28-0.46-1.99c-0.22-0.72-0.36-1.17-0.45-1.38c-0.02-0.19-0.12-0.51-0.28-0.95
		c-0.16-0.44-0.3-0.9-0.42-1.4c-0.06-0.48-0.07-0.99-0.04-1.53c0.03-0.54,0.05-0.92,0.07-1.14c0.21-0.55,0.54-0.91,1.01-1.06
		C534.04,223.47,534.44,223.51,534.83,223.67z"/>
	<path d="M569.03,253.56c-0.9-0.45-1.67-1.27-2.31-2.45c-0.72-1.34-1.18-2.86-1.4-4.56c-0.09-0.35-0.21-0.78-0.37-1.31
		c-0.16-0.53-0.28-1.04-0.35-1.55c-0.24-3.75-0.85-7.12-1.82-10.08c-0.97-2.97-2.25-5.92-3.82-8.87c-0.65-1.22-1.65-3-3-5.33
		c-0.75-1.32-1.48-2.07-2.17-2.27c-0.69-0.19-1.54-0.03-2.53,0.51c-0.31,0.16-0.94,0.55-1.89,1.16c-0.88,0.57-1.58,0.99-2.12,1.28
		c-0.23,0.22-0.63,0.37-1.19,0.45c-0.57,0.08-1.13,0.05-1.67-0.1c-0.55-0.15-0.93-0.43-1.16-0.85c-0.18-0.34-0.24-0.68-0.17-1.01
		c0.05-0.37,0.21-0.66,0.48-0.89c0.27-0.22,0.67-0.44,1.19-0.67c0.48-0.21,1.25-0.6,2.32-1.17c1.99-1.06,3.68-1.78,5.07-2.16
		c1.39-0.38,2.62-0.18,3.67,0.58c0.67,0.43,1.39,1.27,2.16,2.53c1.13,1.75,2.1,3.37,2.9,4.86c3.13,5.85,5.37,12.29,6.73,19.33
		c0.16,0.75,0.23,1.67,0.22,2.76c-0.01,1.09,0.09,2.09,0.29,3.02c0.2,0.93,0.72,2.17,1.56,3.74c1.11-0.59,1.86-0.53,2.24,0.2
		c0.25,0.46,0.33,1,0.25,1.64c-0.08,0.63-0.11,0.97-0.09,1.01C570.94,253.94,569.94,254.01,569.03,253.56z M567.63,263.82
		c-0.44-0.45-1-1.36-1.67-2.72l-1.69-3.3l-1.91-3.7l-2.4-4.76c-3.74-7.63-5.81-11.78-6.22-12.45c-0.45-0.74-1.4-2.25-2.86-4.52
		c-0.26-0.4-0.66-1.01-1.2-1.83c-0.54-0.82-0.97-1.58-1.3-2.29c-0.18-0.34-0.18-0.75,0.01-1.22c0.19-0.47,0.48-0.81,0.86-1.01
		c0.69-0.37,1.23-0.46,1.62-0.28c0.39,0.18,0.77,0.62,1.14,1.31l0.37,0.83c0.1,0.29,0.24,0.58,0.4,0.89
		c0.8,1.59,2.01,3.85,3.63,6.79c1.62,2.94,3.18,5.81,4.67,8.6l2.69,4.9c0.14,0.27,0.54,1.11,1.2,2.53c0.29,0.73,0.46,1.23,0.51,1.5
		c0.13,0.52,0.29,0.95,0.47,1.3c0.16,0.31,0.34,0.41,0.53,0.31c0.78,1.45,1.46,2.64,2.05,3.55l0.67,1.12
		c0.46,0.39,0.76,0.73,0.9,0.99c0.29,0.63,0.34,1.33,0.16,2.09c-0.18,0.76-0.56,1.29-1.13,1.6
		C568.57,264.35,568.07,264.27,567.63,263.82z"/>
	<path d="M593.39,240.12c0.31,0.76,0.23,1.38-0.23,1.85c-0.46,0.47-1.44,1.12-2.92,1.96c-0.22,0.14-1.04,0.49-2.44,1.07
		c-0.48,0.2-0.91,0.15-1.29-0.14c-0.38-0.29-0.68-0.72-0.91-1.28c-0.12-0.28-0.09-0.54,0.07-0.77c0.16-0.23,0.49-0.49,0.98-0.79
		c0.14-0.1,0.98-0.68,2.52-1.73l-6.24-16.13l-1.35-2.96l-0.66-1.62c-0.42-1.14-1.06-2.71-1.93-4.72c-0.87-2.01-1.6-3.62-2.18-4.83
		c-0.62-1.29-1.14-2.18-1.55-2.67c-0.41-0.49-0.88-0.64-1.42-0.47l0.58,3.13c0.85,3.91,2.48,10.6,4.89,20.05
		c0.57,2.43,1.2,4.89,1.89,7.37c0.85,3.12,1.55,5.97,2.09,8.55c0.05,0.35-0.05,0.69-0.29,1c-0.25,0.31-0.59,0.51-1.02,0.59
		c-0.51,0.12-1,0.05-1.46-0.21c-0.46-0.26-0.74-0.62-0.83-1.1l-0.82-3.39c-0.54-1.89-0.96-3.66-1.26-5.31l-0.49-2.75
		c-0.25-1.53-0.63-3.54-1.12-6l-0.21-0.69l-0.17-0.77l-0.05-0.47l-0.06-0.33c-1.51-5.52-2.74-10.49-3.71-14.92l-0.23-1.59
		c-0.04-0.45-0.12-0.85-0.21-1.21c-0.1-0.36-0.18-0.66-0.24-0.92c-0.5,0.16-1.23,0.48-2.2,0.97c-0.43,0.22-0.98,0.47-1.66,0.75
		c-0.09-0.1-0.28-0.25-0.56-0.44c-0.29-0.19-0.51-0.48-0.68-0.88c-0.41-1,0.29-1.87,2.09-2.61c1.12-0.46,2.35-0.91,3.69-1.37
		c1.34-0.45,2.34-0.77,3.02-0.95c0.69-0.14,1.34-0.12,1.96,0.08c0.62,0.19,1.04,0.57,1.27,1.13l0.86,2.11c0.9,2.21,1.66,4,2.27,5.39
		l0.59,1.44c1.79,4.04,3.61,8.33,5.47,12.86c2.12,5.08,4.13,9.55,6.04,13.4L593.39,240.12z"/>
	<path d="M623.66,228.82l0.84,4.01l0.01,0.06c-0.05,0.77-0.14,1.3-0.27,1.59c-0.13,0.3-0.43,0.5-0.9,0.6
		c-0.8,0.18-2.14,0.44-4.02,0.78l-3.56,0.74c-1.69,0.38-2.62,0.11-2.79-0.83c-0.38-1.47-1.08-4.22-2.11-8.25
		c-1.03-4.03-1.61-6.25-1.75-6.67c-2.4-8.39-4.16-15.07-5.29-20.06c-0.56-2.45-0.96-4.34-1.22-5.66c-0.09-0.38,0-0.73,0.26-1.06
		c0.26-0.33,0.6-0.54,1.02-0.63l4.59-0.91c2-0.37,3.56-0.68,4.66-0.92c0.46-0.11,0.91-0.06,1.33,0.13c0.42,0.19,0.68,0.5,0.78,0.92
		c0.39,1.91,1,4.68,1.82,8.32l2.71,11.65c0.24,0.88,0.58,2.27,1.01,4.17L623.66,228.82z M620.16,228.08
		c-1.01-4.44-2.31-9.96-3.9-16.58c-1.59-6.61-2.98-12.21-4.15-16.79l-1.01,0.23l-1.08,0.24c-1.39,0.32-2.63,0.64-3.71,0.98
		c0.61,3.06,2.26,9.55,4.96,19.47c1.68,6.24,2.98,11.34,3.88,15.32l0.62,2.73l5.39-1.23l-0.03-0.13L620.16,228.08z"/>
	<path d="M638.25,230.91c-0.45-0.29-0.71-0.69-0.78-1.21c-0.34-2.62-0.79-5.56-1.34-8.81c-0.35-2.05-0.66-4.06-0.92-6.04l-0.34-2.64
		l-0.17-0.83c-0.07-0.21-0.13-0.46-0.17-0.77c-0.03-0.26-0.03-0.41,0.01-0.46l-0.03-0.26c-0.61-3.37-1.37-8.48-2.25-15.31
		l-0.22-1.68c-0.06-0.47-0.52-0.65-1.38-0.54c-1.8,0.23-3.13,0.12-3.98-0.33c-0.51-0.2-0.79-0.53-0.85-1
		c-0.05-0.39,0.13-0.74,0.55-1.05c0.42-0.32,0.86-0.51,1.34-0.57c0.39-0.05,1.45-0.1,3.19-0.15c0.21-0.03,0.37-0.03,0.46,0.01
		c1.34-0.13,2.31,0.3,2.92,1.29c0.61,0.99,0.96,1.83,1.05,2.52c0.49,3.78,1.57,10.59,3.25,20.42c0.97,5.47,1.81,10.89,2.51,16.26
		c0.05,0.39-0.06,0.72-0.33,0.99c-0.27,0.28-0.62,0.44-1.05,0.5C639.19,231.31,638.71,231.2,638.25,230.91z"/>
	<path d="M653.46,230.71c-1.43,0.06-2.56-0.31-3.4-1.1c-0.84-0.79-1.29-1.98-1.35-3.59c-0.07-1.6,0.25-4.09,0.96-7.46
		c0.71-3.37,1.38-6.13,2.03-8.28c0.41-1.58,1.12-3.84,2.13-6.79l0.75-2.31c0.26-0.92,0.45-2.15,0.56-3.7
		c0.11-1.54,0.13-3.14,0.06-4.78c-0.05-1.21-0.11-2.08-0.17-2.6c-0.78-0.1-1.41-0.16-1.86-0.18c-0.46-0.02-1.36-0.03-2.7-0.02
		c-2.51,0.02-4.15-0.17-4.9-0.58c-0.49-0.28-0.74-0.64-0.76-1.07l-0.09-2.14c-0.03-0.82-0.11-1.6-0.23-2.33
		c-0.12-0.73-0.2-1.23-0.26-1.49c-0.28-2.5,0.21-3.78,1.47-3.83c0.61-0.02,1.12,0.21,1.53,0.72s0.67,1.1,0.79,1.79
		c0.01,0.26-0.04,0.63-0.15,1.11l-0.01,1.24l0.08,3.44c0.43-0.02,1.52,0.02,3.26,0.13l1.43,0.07l2.99,0.01l0.52-0.02l0.52-0.02
		c1.17-0.05,1.82,0.49,1.95,1.61c0.27,1.38,0.47,3.39,0.58,6.03c0.06,1.43,0.05,2.38-0.01,2.86c-0.3,2.27-1.02,5.12-2.18,8.55
		l-0.86,2.7c-2.61,8.26-4.01,13.7-4.2,16.31c-0.06,0.61-0.09,1-0.08,1.17c0.02,0.48,0.18,0.82,0.5,1.02c0.31,0.2,0.9,0.29,1.77,0.25
		c0.56-0.02,1.02-0.06,1.36-0.12c0.43-0.06,0.75,0.09,0.96,0.45c0.21,0.36,0.3,0.82,0.29,1.39c-0.06,0.65-0.41,1.06-1.05,1.21
		C654.97,230.56,654.24,230.68,653.46,230.71z"/>
	<path d="M672.87,212.32c0.02-0.43,0.11-0.91,0.26-1.42c0.22-1.03,0.35-1.94,0.38-2.71l0.19-4.16c0.02-0.48,0.04-1.76,0.05-3.84
		l-0.04-3.45l0-0.06l0.03-0.65c0.03-0.56,0.02-0.93-0.01-1.11c0.04-1.86,0.02-3.08-0.06-3.65c-0.08-0.57-0.47-0.87-1.16-0.9
		l-1.63-0.01c-0.26,0.03-0.63,0.04-1.11,0.01c-1.39-0.06-2.1-0.64-2.13-1.73c0.04-0.91,0.61-1.55,1.72-1.94
		c0.78,0.08,1.62,0.25,2.51,0.51l1.67,0.4c0.41-0.37,1.04-0.54,1.91-0.5c0.52,0.02,0.95,0.27,1.3,0.74
		c0.35,0.47,0.51,0.97,0.48,1.49c-0.02,2.43-0.09,4.7-0.18,6.82l-0.06,4.16c-0.05,1.08-0.11,2.01-0.19,2.79
		c-0.09,1.04-0.17,2.18-0.22,3.44c-0.04,0.82,0.02,2.37,0.18,4.63l0.07,1.3c0.15,0.4,0.22,0.81,0.2,1.25
		c-0.03,0.74-0.28,1.38-0.74,1.92c-0.46,0.54-0.99,0.8-1.6,0.77C673.36,216.37,672.75,215,672.87,212.32z"/>
	<path d="M699.95,190.09c0.19,0.38,0.26,0.78,0.2,1.21c-0.03,0.26-0.08,0.47-0.15,0.64c-3.4,5.63-5.91,10.46-7.53,14.49
		c0.1,2.94,0.13,5.57,0.09,7.88c-0.17,4.3-0.25,7.55-0.25,9.73c0,2.19,0.09,4.43,0.27,6.72c-0.29,0.53-0.6,0.9-0.93,1.12
		c-0.38,0.21-0.73,0.33-1.06,0.35c-0.33,0.02-0.84-0.01-1.53-0.1l-1.22-0.16c-3.95-0.52-5.88-1.12-5.79-1.81
		c0.04-0.34,0.24-0.67,0.59-0.97c0.34-0.3,0.75-0.54,1.21-0.69c1.82,0.41,3.17,0.68,4.03,0.79c0.56,0.07,1.08,0.1,1.56,0.07
		c0.34-3.93,0.41-9.34,0.22-16.23c-0.19-6.89-0.68-13.4-1.45-19.53c-0.07-0.14-0.16-0.65-0.26-1.54c-0.3-1.35-0.39-2.54-0.25-3.57
		l1.37-0.94c0.73,0.1,1.28,0.54,1.66,1.33c0.38,0.79,0.51,1.64,0.39,2.54c-0.04,0.3-0.09,0.49-0.14,0.57
		c0.51,2.47,0.87,5.03,1.1,7.68c0.7-1.66,1.13-2.65,1.31-2.98c0.33-0.52,0.65-1.13,0.96-1.81s0.5-1.13,0.57-1.34
		c0.11-0.16,0.25-0.46,0.41-0.9c0.17-0.44,0.37-0.88,0.6-1.33c0.27-0.4,0.6-0.8,0.97-1.18c0.38-0.39,0.64-0.66,0.79-0.81
		c0.52-0.28,1-0.33,1.46-0.14C699.48,189.42,699.75,189.72,699.95,190.09z"/>
	<path d="M706.67,213.07c-0.34-0.46-0.45-0.94-0.33-1.45c0.12-0.51,0.73-0.83,1.83-0.97c1.56-0.21,4.14,0,7.73,0.63
		c1.37,0.24,2.24,0.4,2.62,0.49c0.55,0.13,0.99,0.42,1.33,0.88c0.34,0.46,0.45,0.94,0.33,1.45c-0.12,0.51-0.73,0.83-1.83,0.97
		c-1.56,0.21-4.14,0-7.73-0.63c-1.37-0.23-2.24-0.4-2.62-0.49C707.45,213.82,707,213.52,706.67,213.07z"/>
	<path d="M721.62,242.55c1.87-5.68,4.09-12.73,6.67-21.14c2.95-9.39,5.19-16.4,6.72-21.06c0.5-1.52,1.45-2.05,2.85-1.59
		c0.37,0.12,0.63,0.39,0.76,0.8c0.14,0.41,0.15,0.8,0.03,1.17c-2.13,6.46-4.01,12.27-5.66,17.43l-5.66,17.43l-4.04,12.29
		c-0.14,0.41-0.41,0.72-0.82,0.93c-0.41,0.21-0.84,0.24-1.29,0.09C720.18,248.58,720.33,246.46,721.62,242.55z"/>
	<path d="M732.09,242.12c-0.18-0.4-0.19-0.81-0.03-1.21c1.62-3.93,3.24-7.69,4.86-11.29c2.09-4.86,3.67-8.58,4.75-11.19
		c0.21-0.52,0.39-1.01,0.53-1.47l0.45-1.08c0.76-1.84,1.45-3.01,2.08-3.5c0.32-0.2,0.65-0.22,1.01-0.07
		c0.4,0.17,0.58,0.82,0.52,1.97c-0.03,0.97-0.37,2.26-1.03,3.86c-0.69,1.68-1.39,3.25-2.08,4.7c-0.65,1.47-1.31,3-1.97,4.6
		l-2.75,7.02l-2.7,6.9c-0.28,0.68-0.66,1.18-1.14,1.5c-0.48,0.32-1.02,0.35-1.63,0.1C732.57,242.81,732.28,242.53,732.09,242.12z
		 M740.21,245.46c-0.18-0.4-0.2-0.81-0.03-1.21c0.35-0.84,0.69-1.61,1.02-2.32c0.55-0.99,0.92-1.73,1.12-2.21l2.61-7.36
		c0.55-1.56,1.39-3.9,2.54-7.04c0.46-0.56,0.89-1.37,1.28-2.43l0.3-0.72c0.26-0.74,0.85-2.23,1.77-4.47
		c1.02-2.48,1.66-4.1,1.92-4.83c1.02-2.81,0.87-4.49-0.46-5.04l-1.17-0.41l-1.38-0.57c-2.12-0.88-2.99-1.91-2.59-3.1
		c0.17-0.4,0.49-0.68,0.97-0.83c0.48-0.15,0.98-0.15,1.47,0.01c1.38,1.08,3.07,2.04,5.08,2.86c0.83-0.08,1.61,0.03,2.33,0.33
		c0.44,0.18,0.74,0.55,0.91,1.11c0.17,0.56,0.17,1.09,0.01,1.59c-0.88,2.36-1.74,4.56-2.58,6.6l-2.76,6.53l-1.83,4.45
		c-1.17,2.85-2.33,5.77-3.47,8.77l-0.17,0.42c-0.89,3.19-1.49,5.15-1.79,5.87c-1.39,3.83-2.79,5.46-4.19,4.88
		C740.71,246.16,740.39,245.87,740.21,245.46z"/>
	<path d="M747.93,247.1c0.22-0.42,0.57-0.64,1.02-0.67c0.46-0.03,0.91,0.08,1.37,0.33c0.12,0.41,0.45,0.81,0.99,1.19
		c0.66,0.5,1.32,0.93,1.97,1.28c1.83,0.98,3.44,1.24,4.82,0.77c1.38-0.47,2.94-1.59,4.67-3.36c1.17-1.19,2.41-2.99,3.69-5.4
		c0.82-1.53,1.45-2.76,1.9-3.7c0.78-1.65,1.52-3.12,2.21-4.42c2.06-3.86,3.25-7.41,3.56-10.66c0.31-3.25-0.62-5.46-2.8-6.62
		c-0.38-0.2-0.68-0.34-0.89-0.4l-2.91-0.89c-0.36-0.24-0.58-0.57-0.66-0.98s0-0.82,0.22-1.24c0.22-0.42,0.56-0.68,1.01-0.79
		c0.45-0.1,0.96,0,1.53,0.3c0.92,0.49,1.97,1.12,3.15,1.9c1.18,0.78,1.95,1.39,2.31,1.82c1.56,1.86,2.43,4.17,2.6,6.92
		c0.18,2.75-0.34,5.54-1.57,8.38c-0.58,1.36-1.13,2.58-1.66,3.65c-0.52,1.07-1.16,2.31-1.92,3.73l-0.74,1.38
		c-0.37,0.69-0.71,1.29-1.04,1.8l-0.8,1.49c-2.03,3.24-4.31,5.68-6.86,7.32c-2.55,1.64-4.82,2.44-6.81,2.4
		c-2.5-0.11-4.65-0.64-6.44-1.6C747.79,249.9,747.13,248.59,747.93,247.1z"/>
	<path d="M774.8,269.23c3.5-4.85,7.76-10.88,12.78-18.11c5.66-8.05,9.92-14.05,12.79-18.02c0.94-1.3,2.01-1.52,3.2-0.65
		c0.32,0.23,0.48,0.56,0.49,0.99c0.01,0.43-0.1,0.81-0.33,1.12c-3.99,5.51-7.55,10.48-10.69,14.89l-10.69,14.89l-7.58,10.48
		c-0.25,0.35-0.61,0.56-1.06,0.64c-0.45,0.07-0.87-0.03-1.26-0.31C771.6,274.54,772.39,272.57,774.8,269.23z"/>
	<path d="M789.87,276.07c-0.1-0.53,0.02-0.99,0.35-1.4c1.68-2.04,3.53-4.36,5.53-6.98c1.26-1.66,2.53-3.25,3.8-4.79l1.7-2.05
		l0.49-0.69c0.1-0.19,0.25-0.41,0.45-0.64c0.17-0.2,0.28-0.3,0.34-0.31l0.17-0.2c2.05-2.75,5.27-6.77,9.67-12.08l1.08-1.3
		c0.3-0.37,0.12-0.83-0.55-1.38c-1.4-1.16-2.22-2.21-2.46-3.14c-0.2-0.5-0.15-0.94,0.15-1.31c0.25-0.3,0.63-0.41,1.15-0.32
		s0.96,0.29,1.33,0.59c0.3,0.25,1.06,0.99,2.29,2.23c0.17,0.14,0.27,0.25,0.31,0.34c1.01,0.89,1.36,1.9,1.05,3.02
		c-0.31,1.12-0.69,1.95-1.13,2.48c-2.43,2.94-6.68,8.37-12.73,16.29c-3.34,4.44-6.73,8.74-10.19,12.91
		c-0.25,0.3-0.57,0.45-0.95,0.44c-0.39-0.01-0.75-0.15-1.08-0.43C790.21,277.03,789.96,276.6,789.87,276.07z"/>
	<path d="M834.74,260.37c0.43-0.06,0.8,0.06,1.1,0.36c0.37,0.37,0.53,0.86,0.49,1.49c-0.04,0.63-0.33,1.2-0.85,1.73l-2.11,2.03
		c-0.83,0.77-1.82,1.74-2.98,2.9l-7.61,6.73c-0.92,0.8-1.62,1.41-2.11,1.84c-0.49,0.43-0.87,0.75-1.15,0.97l-1.65,1.38l-1.19,1.01
		c-2.51,2.52-4.72,4.25-6.63,5.19c-1.91,0.94-4.16,1.32-6.73,1.14l-2.39-0.91c-1.96-0.79-3.02-1.23-3.17-1.32
		c-0.18-0.12-0.42-0.32-0.69-0.6c-0.8-0.8-0.94-1.61-0.42-2.44l0.18-0.18c0.31-0.31,0.72-0.51,1.24-0.6l2.39,1.28l1.75,0.55
		c0.7-1.14,1.74-2.55,3.11-4.24c1.37-1.69,2.67-3.18,3.9-4.47c0.64-0.65,1.18-1.31,1.6-1.98c0.43-0.68,0.9-1.55,1.42-2.62
		c0.79-1.6,1.63-3.08,2.52-4.46s2.18-2.99,3.89-4.84l3.39-3.78l2.89-3.09c1.1-1.11,2.17-1.14,3.22-0.1
		c0.28,0.27,0.38,0.63,0.32,1.06c-0.06,0.43-0.23,0.78-0.5,1.06l-3.48,3.69c0.09-0.09-0.9,0.97-2.98,3.18
		c-1.44,1.5-2.61,2.92-3.53,4.24c-0.92,1.32-1.97,2.92-3.16,4.79c-0.55,0.92-1.11,1.8-1.67,2.65c-0.57,0.84-1.11,1.53-1.63,2.05
		l-7.29,7.6c0.52,0.21,0.8,0.33,0.83,0.37c0.37,0.12,0.77,0.19,1.22,0.2c0.44,0.01,0.79-0.04,1.03-0.16
		c0.12-0.06,0.44-0.19,0.94-0.39c0.5-0.2,1.09-0.58,1.77-1.13c1.41-1.29,3.01-2.78,4.81-4.47l11.28-10.23
		c3.24-3.07,5.3-4.96,6.19-5.67l1.05-0.97C833.85,260.71,834.31,260.43,834.74,260.37z"/>
	<path d="M821.26,306.87c-0.64,0.52-1.25,0.63-1.83,0.32c-0.59-0.31-1.5-1.04-2.73-2.22c-0.2-0.17-0.78-0.85-1.74-2.02
		c-0.33-0.4-0.41-0.83-0.24-1.27c0.17-0.45,0.49-0.86,0.96-1.24c0.23-0.19,0.49-0.24,0.75-0.16c0.27,0.09,0.61,0.32,1.04,0.71
		c0.14,0.11,0.94,0.74,2.39,1.9l13.6-10.69l2.43-2.16l1.36-1.11c0.97-0.73,2.28-1.81,3.95-3.23c1.67-1.42,2.99-2.59,3.98-3.5
		c1.05-0.97,1.75-1.72,2.1-2.26c0.35-0.53,0.36-1.03,0.04-1.5l-2.83,1.47c-3.49,1.96-9.41,5.47-17.74,10.55
		c-2.16,1.26-4.33,2.58-6.5,3.96c-2.73,1.73-5.25,3.23-7.57,4.5c-0.32,0.15-0.67,0.16-1.04,0.01c-0.37-0.15-0.66-0.41-0.87-0.8
		c-0.26-0.46-0.34-0.94-0.22-1.45c0.11-0.51,0.38-0.89,0.81-1.12l3-1.78c1.65-1.07,3.22-1.99,4.71-2.76l2.48-1.27
		c1.39-0.69,3.2-1.63,5.41-2.83l0.59-0.4l0.69-0.39l0.43-0.19l0.29-0.16c4.83-3.05,9.23-5.69,13.18-7.91l1.46-0.68
		c0.42-0.17,0.78-0.36,1.1-0.56c0.31-0.2,0.58-0.36,0.81-0.5c-0.3-0.43-0.82-1.04-1.57-1.82c-0.34-0.34-0.74-0.8-1.2-1.37
		c0.07-0.12,0.16-0.34,0.25-0.67c0.09-0.33,0.31-0.63,0.65-0.9c0.84-0.69,1.88-0.27,3.11,1.24c0.77,0.94,1.56,1.98,2.39,3.13
		c0.82,1.15,1.42,2.01,1.79,2.61c0.34,0.62,0.5,1.25,0.5,1.9c0,0.65-0.24,1.16-0.71,1.54l-1.76,1.44c-1.85,1.51-3.34,2.76-4.49,3.75
		l-1.21,0.99c-3.34,2.9-6.91,5.89-10.7,8.99c-4.24,3.51-7.92,6.75-11.05,9.7L821.26,306.87z"/>
	<path d="M854.1,313.97c-1.96,1.27-3.57,2.34-4.82,3.2c-2.12,1.43-4.97,2.96-8.55,4.61c-3.58,1.65-6,2.46-7.24,2.44
		c-1.32,0.03-2.45-0.22-3.39-0.75c-0.94-0.53-1.77-1.36-2.5-2.49c-0.92-1.42-1.42-2.94-1.52-4.55c-0.09-1.62,0.35-3.03,1.33-4.23
		c0.13-0.19,0.42-0.56,0.87-1.11c0.45-0.55,0.88-1.02,1.29-1.42c0.41-0.4,0.9-0.8,1.46-1.22c1.33-0.97,2.29-1.64,2.88-2.02l3.36-2.1
		l5.4-3.26l5.27-3.34c2.69-1.74,4.95-3.28,6.77-4.61l1.53-1.46c0.46-0.56,0.93-0.99,1.41-1.3l0.89-0.66l2.07,0.44
		c0.33,0.51,0.49,1.08,0.48,1.7c-0.01,0.63-0.2,1.08-0.58,1.38c-0.3,0.25-0.95,0.69-1.93,1.33c-1.13,0.73-2.05,1.3-2.76,1.71
		c-1.89,1.22-3.17,2.08-3.84,2.56l-1.55,1.08l-1.58,1.02l-0.38,0.25c-0.23,0.2-0.62,0.48-1.17,0.83c-0.65,0.42-1.73,1.04-3.22,1.85
		c-1.72,1.01-2.82,1.67-3.29,1.97l-1.66,1.15c0.26,0.24,0.58,0.45,0.95,0.63c0.94,0.42,2,0.51,3.19,0.26
		c1.18-0.25,2.54-0.8,4.07-1.67c1.53-0.86,3.66-2.18,6.39-3.94l4.8-3.11l3.98-2.58c0.36-0.23,0.67-0.34,0.92-0.32
		c0.25,0.02,0.71,0.25,1.41,0.68c0.38,0.58,0.57,1.02,0.59,1.32c0.01,0.3-0.04,0.52-0.16,0.65c-0.12,0.13-0.42,0.35-0.89,0.65
		c-1.86,1.2-3.36,2.07-4.51,2.61c-1.27,0.67-2.22,1.2-2.83,1.6l-2.31,1.34c-1.09,0.55-1.89,0.99-2.4,1.32
		c-0.18,0.12-0.33,0.24-0.46,0.37l-0.44,0.28c-2.51,1.63-4.56,2.75-6.15,3.36c-1.59,0.62-3.03,0.79-4.32,0.51
		c-1.29-0.28-2.66-1.06-4.11-2.34l-5.14,3.79c-1.34,0.97-2.24,2.12-2.71,3.46c-0.48,1.34-0.41,2.48,0.21,3.43
		c0.54,0.84,1.38,1.3,2.52,1.39c1.14,0.09,2.38-0.15,3.72-0.71c1.72-0.7,3.87-1.63,6.45-2.78c2.58-1.16,4.05-1.9,4.4-2.23
		c1.2-0.78,2.15-1.42,2.86-1.93c2.22-1.44,4.15-2.71,5.8-3.83c0.67-0.48,1.6-1.11,2.8-1.89c1.13-0.73,2.41-1.51,3.84-2.33l2.44-1.5
		c1.16-0.75,2.13-1.19,2.91-1.3c0.78-0.12,1.33,0.08,1.66,0.59c0.28,0.44,0.36,0.93,0.22,1.48c-0.13,0.55-0.42,0.97-0.86,1.25
		c-0.47,0.31-0.92,0.41-1.34,0.32c-0.29,0.19-0.79,0.47-1.5,0.85c-0.71,0.38-1.39,0.78-2.04,1.21c-1.46,0.94-2.41,1.58-2.86,1.93
		l-1.42,0.92L854.1,313.97z"/>
</g>
</svg>
