<?xml version="1.0" encoding="utf-8"?>
<!-- Generator: Adobe Illustrator 25.1.0, SVG Export Plug-In . SVG Version: 6.00 Build 0)  -->
<svg version="1.1" id="Layer_1" xmlns="http://www.w3.org/2000/svg" xmlns:xlink="http://www.w3.org/1999/xlink" x="0px" y="0px"
	 viewBox="0 0 1366 768" style="enable-background:new 0 0 1366 768;" xml:space="preserve">
<style type="text/css">
	.st0{fill:#F6D12A;}
</style>
<g>
	<g>
		<circle class="st0" cx="684.38" cy="296.37" r="72.78"/>
		<path d="M684.38,225.09c39.3,0,71.28,31.98,71.28,71.28s-31.98,71.28-71.28,71.28c-39.3,0-71.28-31.98-71.28-71.28
			S645.08,225.09,684.38,225.09 M684.38,222.09c-41.02,0-74.28,33.26-74.28,74.28c0,41.02,33.26,74.28,74.28,74.28
			c41.02,0,74.28-33.26,74.28-74.28C758.66,255.34,725.41,222.09,684.38,222.09L684.38,222.09z"/>
	</g>
	<g>
		<rect x="786.52" y="218.99" width="49.52" height="35.78"/>
	</g>
	<g>
		<path d="M731.87,157l11.56,29.06l0.75,1.89h2.04h115v220.06H504.78V187.95h92.94h18.57h1.81l0.85-1.6L634.5,157H731.87 M733.9,154
			H632.69l-16.4,30.95h-18.57h-95.94v226.06h362.44V184.95h-118L733.9,154L733.9,154z"/>
	</g>
</g>
<g>
	<path d="M323.79,501.79c0-0.8,0.12-1.68,0.36-2.64c0.32-1.92,0.48-3.6,0.48-5.04v-7.68c0-0.88-0.08-3.24-0.24-7.08l-0.36-6.36
		v-0.12v-1.2c0-1.04-0.04-1.72-0.12-2.04c-0.08-3.44-0.22-5.68-0.42-6.72c-0.2-1.04-0.94-1.56-2.22-1.56l-3,0.12
		c-0.48,0.08-1.16,0.12-2.04,0.12c-2.56,0-3.92-1-4.08-3c0-1.68,1-2.92,3-3.72c1.44,0.08,3,0.32,4.68,0.72l3.12,0.6
		c0.72-0.72,1.88-1.08,3.48-1.08c0.96,0,1.78,0.42,2.46,1.26c0.68,0.84,1.02,1.74,1.02,2.7c0.16,4.48,0.24,8.68,0.24,12.6l0.24,7.68
		c0,2-0.04,3.72-0.12,5.16c-0.08,1.92-0.12,4.04-0.12,6.36c0,1.52,0.24,4.36,0.72,8.52l0.24,2.4c0.32,0.72,0.48,1.48,0.48,2.28
		c0,1.36-0.4,2.56-1.2,3.6c-0.8,1.04-1.76,1.56-2.88,1.56C325.03,509.23,323.79,506.75,323.79,501.79z"/>
	<path d="M366.39,456.18c0.48-0.64,1.12-0.96,1.92-0.96c0.96,0,1.82,0.44,2.58,1.32c0.76,0.88,1.14,2,1.14,3.36l-0.12,5.4
		c-0.08,2.08-0.12,4.64-0.12,7.68l-1.2,18.72c-0.16,2.24-0.28,3.96-0.36,5.16c-0.08,1.2-0.16,2.12-0.24,2.76l-0.36,3.96l-0.24,2.88
		c0,6.56-0.64,11.7-1.92,15.42c-1.28,3.72-3.72,7.14-7.32,10.26l-4.32,1.92c-3.6,1.52-5.56,2.32-5.88,2.4
		c-0.4,0.08-0.96,0.12-1.68,0.12c-2.08,0-3.32-0.88-3.72-2.64v-0.48c0-0.8,0.28-1.6,0.84-2.4l4.8-1.44l3-1.56
		c-0.56-2.4-1.04-5.6-1.44-9.6c-0.4-4-0.64-7.64-0.72-10.92c0-1.68-0.16-3.24-0.48-4.68c-0.32-1.44-0.84-3.2-1.56-5.28
		c-1.04-3.12-1.88-6.16-2.52-9.12c-0.64-2.96-1.04-6.76-1.2-11.4l-0.48-9.36l-0.24-7.8c0-2.88,1.36-4.32,4.08-4.32
		c0.72,0,1.32,0.32,1.8,0.96c0.48,0.64,0.72,1.32,0.72,2.04l0.24,9.36c0-0.24,0.08,2.44,0.24,8.04c0.08,3.84,0.38,7.22,0.9,10.14
		c0.52,2.92,1.22,6.38,2.1,10.38c0.48,1.92,0.9,3.8,1.26,5.64c0.36,1.84,0.54,3.44,0.54,4.8l0.36,19.44c0.96-0.4,1.48-0.6,1.56-0.6
		c0.64-0.32,1.26-0.76,1.86-1.32c0.6-0.56,0.98-1.08,1.14-1.56c0.08-0.24,0.32-0.82,0.72-1.74c0.4-0.92,0.68-2.18,0.84-3.78
		c0.16-3.52,0.32-7.56,0.48-12.12l1.44-28.08c0.24-8.24,0.48-13.4,0.72-15.48l0.12-2.64C365.67,457.79,365.91,456.83,366.39,456.18z
		"/>
	<path d="M396.93,533.95c-0.76-0.64-1.14-1.44-1.14-2.4c0-4.88-0.12-10.36-0.36-16.44c-0.16-3.84-0.24-7.6-0.24-11.28v-4.92
		l-0.12-1.56c-0.08-0.4-0.12-0.88-0.12-1.44c0-0.48,0.04-0.76,0.12-0.84v-0.48c-0.32-6.32-0.48-15.84-0.48-28.56v-3.12
		c0-0.88-0.8-1.32-2.4-1.32c-3.36,0-5.76-0.52-7.2-1.56c-0.88-0.48-1.32-1.16-1.32-2.04c0-0.72,0.42-1.32,1.26-1.8
		c0.84-0.48,1.7-0.72,2.58-0.72c0.72,0,2.68,0.16,5.88,0.48c0.4,0,0.68,0.04,0.84,0.12c2.48,0.08,4.16,1.1,5.04,3.06
		c0.88,1.96,1.32,3.58,1.32,4.86c0,7.04,0.36,19.76,1.08,38.16c0.48,10.24,0.72,20.36,0.72,30.36c0,0.72-0.28,1.3-0.84,1.74
		c-0.56,0.44-1.24,0.66-2.04,0.66C398.55,534.91,397.69,534.59,396.93,533.95z"/>
	<path d="M437.73,455.95c0.44,0.64,0.66,1.36,0.66,2.16c0,0.48-0.04,0.88-0.12,1.2c-4.88,11.12-8.32,20.56-10.32,28.32
		c0.88,5.36,1.56,10.16,2.04,14.4c0.72,7.92,1.34,13.88,1.86,17.88c0.52,4,1.22,8.08,2.1,12.24c-0.4,1.04-0.88,1.8-1.44,2.28
		c-0.64,0.48-1.26,0.78-1.86,0.9c-0.6,0.12-1.54,0.18-2.82,0.18h-2.28c-7.36,0-11.04-0.64-11.04-1.92c0-0.64,0.28-1.28,0.84-1.92
		c0.56-0.64,1.24-1.16,2.04-1.56c3.44,0.32,5.96,0.48,7.56,0.48c1.04,0,2-0.08,2.88-0.24c-0.32-7.28-1.48-17.2-3.48-29.76
		c-2-12.56-4.44-24.36-7.32-35.4c-0.16-0.24-0.44-1.16-0.84-2.76c-0.88-2.4-1.32-4.56-1.32-6.48l2.28-2.04
		c1.36,0,2.48,0.68,3.36,2.04c0.88,1.36,1.32,2.88,1.32,4.56c0,0.56-0.04,0.92-0.12,1.08c1.52,4.4,2.8,9,3.84,13.8
		c0.88-3.2,1.44-5.12,1.68-5.76c0.48-1.04,0.92-2.22,1.32-3.54c0.4-1.32,0.64-2.18,0.72-2.58c0.16-0.32,0.34-0.9,0.54-1.74
		c0.2-0.84,0.46-1.7,0.78-2.58c0.4-0.8,0.9-1.6,1.5-2.4c0.6-0.8,1.02-1.36,1.26-1.68c0.88-0.64,1.76-0.84,2.64-0.6
		C436.71,454.83,437.28,455.31,437.73,455.95z"/>
	<path d="M461.85,535.27c-1.08-1.52-1.62-3.52-1.62-6c0-2.8,0.56-5.68,1.68-8.64c0.16-0.64,0.34-1.46,0.54-2.46
		c0.2-1,0.46-1.94,0.78-2.82c2.88-6.32,4.82-12.32,5.82-18c1-5.68,1.5-11.6,1.5-17.76c0-2.56-0.08-6.32-0.24-11.28
		c-0.08-2.8-0.6-4.66-1.56-5.58c-0.96-0.92-2.48-1.38-4.56-1.38c-0.64,0-2,0.08-4.08,0.24c-1.92,0.16-3.44,0.24-4.56,0.24
		c-0.56,0.16-1.34,0.06-2.34-0.3c-1-0.36-1.88-0.9-2.64-1.62c-0.76-0.72-1.14-1.52-1.14-2.4c0-0.72,0.2-1.32,0.6-1.8
		c0.4-0.56,0.92-0.9,1.56-1.02c0.64-0.12,1.48-0.14,2.52-0.06c0.96,0.08,2.56,0.12,4.8,0.12c4.16,0,7.54,0.3,10.14,0.9
		c2.6,0.6,4.42,1.98,5.46,4.14c0.72,1.28,1.16,3.28,1.32,6c0.32,3.84,0.48,7.32,0.48,10.44c0,12.24-1.96,24.68-5.88,37.32
		c-0.4,1.36-1.08,2.92-2.04,4.68c-0.96,1.76-1.68,3.48-2.16,5.16c-0.48,1.68-0.72,4.16-0.72,7.44c2.32,0,3.48,0.76,3.48,2.28
		c0,0.96-0.34,1.92-1.02,2.88c-0.68,0.96-1.02,1.48-1.02,1.56C464.62,537.54,462.93,536.78,461.85,535.27z M450.63,550.75
		c-0.32-1.12-0.44-3.08-0.36-5.88l0.12-6.84l0.12-7.68l0.24-9.84c0.56-15.68,0.8-24.24,0.72-25.68c-0.08-1.6-0.32-4.88-0.72-9.84
		c-0.08-0.88-0.2-2.22-0.36-4.02c-0.16-1.8-0.2-3.42-0.12-4.86c0-0.72,0.36-1.38,1.08-1.98c0.72-0.6,1.48-0.9,2.28-0.9
		c1.44,0,2.4,0.32,2.88,0.96c0.48,0.64,0.72,1.68,0.72,3.12l-0.12,1.68c-0.08,0.56-0.12,1.16-0.12,1.8c-0.08,3.28-0.08,8.02,0,14.22
		c0.08,6.2,0.12,12.22,0.12,18.06l0.12,10.32c0,0.56-0.08,2.28-0.24,5.16c-0.16,1.44-0.32,2.4-0.48,2.88
		c-0.24,0.96-0.36,1.8-0.36,2.52c0,0.64,0.2,0.96,0.6,0.96c0,3.04,0.08,5.56,0.24,7.56l0.12,2.4c0.4,1.04,0.6,1.84,0.6,2.4
		c-0.08,1.28-0.6,2.46-1.56,3.54s-2.04,1.62-3.24,1.62C451.71,552.42,450.94,551.86,450.63,550.75z"/>
	<path d="M515.19,531.31c0,1.52-0.56,2.52-1.68,3c-1.12,0.48-3.24,0.92-6.36,1.32c-0.48,0.08-2.12,0.12-4.92,0.12
		c-0.96,0-1.66-0.38-2.1-1.14c-0.44-0.76-0.66-1.7-0.66-2.82c0-0.56,0.22-0.98,0.66-1.26c0.44-0.28,1.18-0.5,2.22-0.66
		c0.32-0.08,2.16-0.48,5.52-1.2l0.6-31.92l-0.24-6v-3.24c0.08-2.24,0.08-5.38,0-9.42c-0.08-4.04-0.2-7.3-0.36-9.78
		c-0.16-2.64-0.42-4.52-0.78-5.64c-0.36-1.12-1.06-1.72-2.1-1.8l-1.2,5.76c-1.28,7.28-3.16,19.84-5.64,37.68
		c-0.72,4.56-1.36,9.2-1.92,13.92c-0.72,5.92-1.52,11.28-2.4,16.08c-0.16,0.64-0.56,1.14-1.2,1.5c-0.64,0.36-1.36,0.46-2.16,0.3
		c-0.96-0.16-1.74-0.62-2.34-1.38c-0.6-0.76-0.82-1.58-0.66-2.46l0.96-6.36c0.4-3.6,0.92-6.92,1.56-9.96l1.08-5.04
		c0.64-2.8,1.4-6.48,2.28-11.04l0.12-1.32l0.24-1.44l0.24-0.84l0.12-0.6c1.28-10.48,2.64-19.84,4.08-28.08l0.72-2.88
		c0.24-0.8,0.4-1.54,0.48-2.22c0.08-0.68,0.16-1.26,0.24-1.74c-0.96-0.08-2.44-0.04-4.44,0.12c-0.88,0.08-2,0.12-3.36,0.12
		c-0.08-0.24-0.3-0.62-0.66-1.14c-0.36-0.52-0.54-1.18-0.54-1.98c0-2,1.8-3,5.4-3c2.24,0,4.66,0.08,7.26,0.24
		c2.6,0.16,4.54,0.32,5.82,0.48c1.28,0.24,2.38,0.74,3.3,1.5c0.92,0.76,1.38,1.7,1.38,2.82v4.2c0,4.4,0.04,8,0.12,10.8v2.88
		c0.24,8.16,0.36,16.76,0.36,25.8c0.08,10.16,0.4,19.2,0.96,27.12V531.31z"/>
	<path d="M577.22,526.15l-0.12,7.56v0.12c-0.4,1.36-0.78,2.28-1.14,2.76c-0.36,0.48-0.98,0.72-1.86,0.72
		c-1.52,0-4.04-0.08-7.56-0.24l-6.72-0.12c-3.2,0-4.76-0.88-4.68-2.64c-0.08-2.8-0.22-8.04-0.42-15.72
		c-0.2-7.68-0.34-11.92-0.42-12.72c-0.88-16.08-1.32-28.84-1.32-38.28c0-4.64,0.04-8.2,0.12-10.68c0-0.72,0.3-1.32,0.9-1.8
		c0.6-0.48,1.3-0.72,2.1-0.72l8.64,0.24c3.76,0.16,6.68,0.24,8.76,0.24c0.88,0,1.66,0.26,2.34,0.78c0.68,0.52,1.02,1.18,1.02,1.98
		c-0.08,3.6-0.12,8.84-0.12,15.72l0.12,22.08c0.08,1.68,0.12,4.32,0.12,7.92L577.22,526.15z M571.22,523.39
		c0-8.4-0.08-18.88-0.24-31.44c-0.16-12.56-0.36-23.2-0.6-31.92h-1.92h-2.04c-2.64,0-5,0.08-7.08,0.24
		c-0.16,5.76,0.16,18.12,0.96,37.08c0.48,11.92,0.72,21.64,0.72,29.16v5.16h10.2v-0.24V523.39z"/>
	<path d="M604.64,533.95c-0.76-0.64-1.14-1.44-1.14-2.4c0-4.88-0.12-10.36-0.36-16.44c-0.16-3.84-0.24-7.6-0.24-11.28v-4.92
		l-0.12-1.56c-0.08-0.4-0.12-0.88-0.12-1.44c0-0.48,0.04-0.76,0.12-0.84v-0.48c-0.32-6.32-0.48-15.84-0.48-28.56v-3.12
		c0-0.88-0.8-1.32-2.4-1.32c-3.36,0-5.76-0.52-7.2-1.56c-0.88-0.48-1.32-1.16-1.32-2.04c0-0.72,0.42-1.32,1.26-1.8
		c0.84-0.48,1.7-0.72,2.58-0.72c0.72,0,2.68,0.16,5.88,0.48c0.4,0,0.68,0.04,0.84,0.12c2.48,0.08,4.16,1.1,5.04,3.06
		c0.88,1.96,1.32,3.58,1.32,4.86c0,7.04,0.36,19.76,1.08,38.16c0.48,10.24,0.72,20.36,0.72,30.36c0,0.72-0.28,1.3-0.84,1.74
		c-0.56,0.44-1.24,0.66-2.04,0.66C606.26,534.91,605.4,534.59,604.64,533.95z"/>
	<path d="M634.46,535.87c-2.64,0-4.7-0.76-6.18-2.28c-1.48-1.52-2.22-3.76-2.22-6.72c0-2.96,0.78-7.52,2.34-13.68
		c1.56-6.16,3.02-11.2,4.38-15.12c0.88-2.88,2.36-7,4.44-12.36l1.56-4.2c0.56-1.68,1-3.94,1.32-6.78c0.32-2.84,0.48-5.78,0.48-8.82
		c0-2.24-0.04-3.84-0.12-4.8c-1.44-0.24-2.58-0.4-3.42-0.48c-0.84-0.08-2.5-0.16-4.98-0.24c-4.64-0.16-7.64-0.64-9-1.44
		c-0.88-0.56-1.32-1.24-1.32-2.04v-3.96c0-1.52-0.08-2.96-0.24-4.32c-0.16-1.36-0.28-2.28-0.36-2.76c-0.32-4.64,0.68-6.96,3-6.96
		c1.12,0,2.04,0.48,2.76,1.44c0.72,0.96,1.16,2.08,1.32,3.36c0,0.48-0.12,1.16-0.36,2.04l-0.12,2.28l-0.12,6.36
		c0.8,0,2.8,0.16,6,0.48l2.64,0.24l5.52,0.24h0.96h0.96c2.16,0,3.32,1.04,3.48,3.12c0.4,2.56,0.6,6.28,0.6,11.16
		c0,2.64-0.08,4.4-0.24,5.28c-0.72,4.16-2.28,9.36-4.68,15.6l-1.8,4.92c-5.44,15.04-8.44,24.96-9,29.76
		c-0.16,1.12-0.24,1.84-0.24,2.16c0,0.88,0.28,1.52,0.84,1.92c0.56,0.4,1.64,0.6,3.24,0.6c1.04,0,1.88-0.04,2.52-0.12
		c0.8-0.08,1.38,0.22,1.74,0.9c0.36,0.68,0.5,1.54,0.42,2.58c-0.16,1.2-0.84,1.92-2.04,2.16
		C637.26,535.7,635.9,535.87,634.46,535.87z"/>
	<path d="M670.7,501.79c0-0.8,0.12-1.68,0.36-2.64c0.32-1.92,0.48-3.6,0.48-5.04v-7.68c0-0.88-0.08-3.24-0.24-7.08l-0.36-6.36v-0.12
		v-1.2c0-1.04-0.04-1.72-0.12-2.04c-0.08-3.44-0.22-5.68-0.42-6.72c-0.2-1.04-0.94-1.56-2.22-1.56l-3,0.12
		c-0.48,0.08-1.16,0.12-2.04,0.12c-2.56,0-3.92-1-4.08-3c0-1.68,1-2.92,3-3.72c1.44,0.08,3,0.32,4.68,0.72l3.12,0.6
		c0.72-0.72,1.88-1.08,3.48-1.08c0.96,0,1.78,0.42,2.46,1.26c0.68,0.84,1.02,1.74,1.02,2.7c0.16,4.48,0.24,8.68,0.24,12.6l0.24,7.68
		c0,2-0.04,3.72-0.12,5.16c-0.08,1.92-0.12,4.04-0.12,6.36c0,1.52,0.24,4.36,0.72,8.52l0.24,2.4c0.32,0.72,0.48,1.48,0.48,2.28
		c0,1.36-0.4,2.56-1.2,3.6c-0.8,1.04-1.76,1.56-2.88,1.56C671.94,509.23,670.7,506.75,670.7,501.79z"/>
	<path d="M713.96,455.95c0.44,0.64,0.66,1.36,0.66,2.16c0,0.48-0.04,0.88-0.12,1.2c-4.88,11.12-8.32,20.56-10.32,28.32
		c0.88,5.36,1.56,10.16,2.04,14.4c0.72,7.92,1.34,13.88,1.86,17.88c0.52,4,1.22,8.08,2.1,12.24c-0.4,1.04-0.88,1.8-1.44,2.28
		c-0.64,0.48-1.26,0.78-1.86,0.9s-1.54,0.18-2.82,0.18h-2.28c-7.36,0-11.04-0.64-11.04-1.92c0-0.64,0.28-1.28,0.84-1.92
		c0.56-0.64,1.24-1.16,2.04-1.56c3.44,0.32,5.96,0.48,7.56,0.48c1.04,0,2-0.08,2.88-0.24c-0.32-7.28-1.48-17.2-3.48-29.76
		c-2-12.56-4.44-24.36-7.32-35.4c-0.16-0.24-0.44-1.16-0.84-2.76c-0.88-2.4-1.32-4.56-1.32-6.48l2.28-2.04
		c1.36,0,2.48,0.68,3.36,2.04c0.88,1.36,1.32,2.88,1.32,4.56c0,0.56-0.04,0.92-0.12,1.08c1.52,4.4,2.8,9,3.84,13.8
		c0.88-3.2,1.44-5.12,1.68-5.76c0.48-1.04,0.92-2.22,1.32-3.54c0.4-1.32,0.64-2.18,0.72-2.58c0.16-0.32,0.34-0.9,0.54-1.74
		c0.2-0.84,0.46-1.7,0.78-2.58c0.4-0.8,0.9-1.6,1.5-2.4c0.6-0.8,1.02-1.36,1.26-1.68c0.88-0.64,1.76-0.84,2.64-0.6
		C712.94,454.83,713.52,455.31,713.96,455.95z"/>
	<path d="M729.86,495.49c-0.8-0.68-1.2-1.5-1.2-2.46s0.96-1.8,2.88-2.52c2.72-1.04,7.44-1.76,14.16-2.16
		c2.56-0.16,4.2-0.24,4.92-0.24c1.04,0,1.96,0.34,2.76,1.02c0.8,0.68,1.2,1.5,1.2,2.46s-0.96,1.8-2.88,2.52
		c-2.72,1.04-7.44,1.76-14.16,2.16c-2.56,0.16-4.2,0.24-4.92,0.24C731.58,496.5,730.66,496.17,729.86,495.49z"/>
	<path d="M771.62,541.03c0-11.04-0.16-24.68-0.48-40.92c-0.24-18.16-0.36-31.76-0.36-40.8c0-2.96,1.36-4.44,4.08-4.44
		c0.72,0,1.32,0.32,1.8,0.96c0.48,0.64,0.72,1.32,0.72,2.04c0,12.56,0.04,23.84,0.12,33.84l0.12,33.84v23.88c0,0.8-0.3,1.5-0.9,2.1
		c-0.6,0.6-1.34,0.9-2.22,0.9C772.58,552.42,771.62,548.63,771.62,541.03z"/>
	<path d="M807.44,534.07c-0.6-0.56-0.9-1.24-0.9-2.04c0-1.68,0.04-3.24,0.12-4.68c0.24-2.08,0.36-3.6,0.36-4.56l-0.72-14.4
		c-0.16-3.04-0.36-7.64-0.6-13.8c0.4-1.28,0.56-2.96,0.48-5.04v-1.44c-0.08-1.44-0.12-4.4-0.12-8.88c0-4.96-0.04-8.16-0.12-9.6
		c-0.24-5.52-1.68-8.28-4.32-8.28l-2.28,0.12h-2.76c-4.24,0-6.44-1.16-6.6-3.48c0-0.8,0.36-1.5,1.08-2.1
		c0.72-0.6,1.56-0.94,2.52-1.02c3.12,0.88,6.68,1.32,10.68,1.32c1.36-0.72,2.76-1.08,4.2-1.08c0.88,0,1.66,0.42,2.34,1.26
		c0.68,0.84,1.06,1.74,1.14,2.7c0.16,4.64,0.24,9,0.24,13.08l-0.12,13.08v8.88c0,5.68,0.08,11.48,0.24,17.4v0.84
		c0.72,6.08,1.08,9.84,1.08,11.28c0.32,7.52-0.92,11.28-3.72,11.28C808.78,534.91,808.04,534.63,807.44,534.07z M791.24,534.07
		c-0.6-0.56-0.9-1.24-0.9-2.04c0-7.84,0.12-15.4,0.36-22.68c0.16-9.76,0.24-17.24,0.24-22.44c0-1.04-0.04-2-0.12-2.88v-2.16
		c0-3.68,0.36-6.16,1.08-7.44c0.4-0.56,0.96-0.84,1.68-0.84c0.8,0,1.56,1,2.28,3c0.64,1.68,0.96,4.12,0.96,7.32
		c0,3.36-0.08,6.52-0.24,9.48c-0.08,2.96-0.12,6.04-0.12,9.24l0.24,13.92l0.24,13.68c0,1.36-0.3,2.48-0.9,3.36
		c-0.6,0.88-1.5,1.32-2.7,1.32C792.54,534.91,791.84,534.63,791.24,534.07z"/>
	<path d="M823.46,531.31c0-0.88,0.36-1.54,1.08-1.98c0.72-0.44,1.56-0.66,2.52-0.66c0.56,0.56,1.44,0.92,2.64,1.08
		c1.52,0.24,2.96,0.36,4.32,0.36c3.84,0,6.68-0.98,8.52-2.94c1.84-1.96,3.4-5.14,4.68-9.54c0.88-2.96,1.32-6.96,1.32-12
		c0-3.2-0.04-5.76-0.12-7.68c-0.16-3.36-0.24-6.4-0.24-9.12c0-8.08-1.16-14.9-3.48-20.46c-2.32-5.56-5.76-8.34-10.32-8.34
		c-0.8,0-1.4,0.04-1.8,0.12l-5.52,1.08c-0.8-0.08-1.44-0.42-1.92-1.02c-0.48-0.6-0.72-1.34-0.72-2.22c0-0.88,0.32-1.6,0.96-2.16
		c0.64-0.56,1.56-0.84,2.76-0.84c1.92,0,4.18,0.12,6.78,0.36c2.6,0.24,4.38,0.56,5.34,0.96c4.16,1.68,7.58,4.68,10.26,9
		c2.68,4.32,4.26,9.32,4.74,15c0.24,2.72,0.4,5.18,0.48,7.38c0.08,2.2,0.12,4.78,0.12,7.74v2.88c0,1.44-0.04,2.72-0.12,3.84v3.12
		c-0.48,7.04-2.08,13-4.8,17.88c-2.72,4.88-5.72,8.16-9,9.84c-4.16,2-8.12,3-11.88,3C825.66,535.99,823.46,534.42,823.46,531.31z"/>
	<path d="M890.3,541.03c0-11.04-0.16-24.68-0.48-40.92c-0.24-18.16-0.36-31.76-0.36-40.8c0-2.96,1.36-4.44,4.08-4.44
		c0.72,0,1.32,0.32,1.8,0.96c0.48,0.64,0.72,1.32,0.72,2.04c0,12.56,0.04,23.84,0.12,33.84l0.12,33.84v23.88c0,0.8-0.3,1.5-0.9,2.1
		c-0.6,0.6-1.34,0.9-2.22,0.9C891.26,552.42,890.3,548.63,890.3,541.03z"/>
	<path d="M921.55,533.95c-0.76-0.64-1.14-1.44-1.14-2.4c0-4.88-0.12-10.36-0.36-16.44c-0.16-3.84-0.24-7.6-0.24-11.28v-4.92
		l-0.12-1.56c-0.08-0.4-0.12-0.88-0.12-1.44c0-0.48,0.04-0.76,0.12-0.84v-0.48c-0.32-6.32-0.48-15.84-0.48-28.56v-3.12
		c0-0.88-0.8-1.32-2.4-1.32c-3.36,0-5.76-0.52-7.2-1.56c-0.88-0.48-1.32-1.16-1.32-2.04c0-0.72,0.42-1.32,1.26-1.8
		c0.84-0.48,1.7-0.72,2.58-0.72c0.72,0,2.68,0.16,5.88,0.48c0.4,0,0.68,0.04,0.84,0.12c2.48,0.08,4.16,1.1,5.04,3.06
		c0.88,1.96,1.32,3.58,1.32,4.86c0,7.04,0.36,19.76,1.08,38.16c0.48,10.24,0.72,20.36,0.72,30.36c0,0.72-0.28,1.3-0.84,1.74
		c-0.56,0.44-1.24,0.66-2.04,0.66C923.17,534.91,922.31,534.59,921.55,533.95z"/>
	<path d="M961.69,456.18c0.48-0.64,1.12-0.96,1.92-0.96c0.96,0,1.82,0.44,2.58,1.32c0.76,0.88,1.14,2,1.14,3.36l-0.12,5.4
		c-0.08,2.08-0.12,4.64-0.12,7.68l-1.2,18.72c-0.16,2.24-0.28,3.96-0.36,5.16c-0.08,1.2-0.16,2.12-0.24,2.76l-0.36,3.96l-0.24,2.88
		c0,6.56-0.64,11.7-1.92,15.42c-1.28,3.72-3.72,7.14-7.32,10.26l-4.32,1.92c-3.6,1.52-5.56,2.32-5.88,2.4
		c-0.4,0.08-0.96,0.12-1.68,0.12c-2.08,0-3.32-0.88-3.72-2.64v-0.48c0-0.8,0.28-1.6,0.84-2.4l4.8-1.44l3-1.56
		c-0.56-2.4-1.04-5.6-1.44-9.6c-0.4-4-0.64-7.64-0.72-10.92c0-1.68-0.16-3.24-0.48-4.68c-0.32-1.44-0.84-3.2-1.56-5.28
		c-1.04-3.12-1.88-6.16-2.52-9.12c-0.64-2.96-1.04-6.76-1.2-11.4l-0.48-9.36l-0.24-7.8c0-2.88,1.36-4.32,4.08-4.32
		c0.72,0,1.32,0.32,1.8,0.96c0.48,0.64,0.72,1.32,0.72,2.04l0.24,9.36c0-0.24,0.08,2.44,0.24,8.04c0.08,3.84,0.38,7.22,0.9,10.14
		c0.52,2.92,1.22,6.38,2.1,10.38c0.48,1.92,0.9,3.8,1.26,5.64c0.36,1.84,0.54,3.44,0.54,4.8l0.36,19.44c0.96-0.4,1.48-0.6,1.56-0.6
		c0.64-0.32,1.26-0.76,1.86-1.32c0.6-0.56,0.98-1.08,1.14-1.56c0.08-0.24,0.32-0.82,0.72-1.74c0.4-0.92,0.68-2.18,0.84-3.78
		c0.16-3.52,0.32-7.56,0.48-12.12l1.44-28.08c0.24-8.24,0.48-13.4,0.72-15.48l0.12-2.64C960.97,457.79,961.21,456.83,961.69,456.18z
		"/>
	<path d="M1006.57,531.31c0,1.52-0.56,2.52-1.68,3c-1.12,0.48-3.24,0.92-6.36,1.32c-0.48,0.08-2.12,0.12-4.92,0.12
		c-0.96,0-1.66-0.38-2.1-1.14c-0.44-0.76-0.66-1.7-0.66-2.82c0-0.56,0.22-0.98,0.66-1.26c0.44-0.28,1.18-0.5,2.22-0.66
		c0.32-0.08,2.16-0.48,5.52-1.2l0.6-31.92l-0.24-6v-3.24c0.08-2.24,0.08-5.38,0-9.42c-0.08-4.04-0.2-7.3-0.36-9.78
		c-0.16-2.64-0.42-4.52-0.78-5.64c-0.36-1.12-1.06-1.72-2.1-1.8l-1.2,5.76c-1.28,7.28-3.16,19.84-5.64,37.68
		c-0.72,4.56-1.36,9.2-1.92,13.92c-0.72,5.92-1.52,11.28-2.4,16.08c-0.16,0.64-0.56,1.14-1.2,1.5c-0.64,0.36-1.36,0.46-2.16,0.3
		c-0.96-0.16-1.74-0.62-2.34-1.38c-0.6-0.76-0.82-1.58-0.66-2.46l0.96-6.36c0.4-3.6,0.92-6.92,1.56-9.96l1.08-5.04
		c0.64-2.8,1.4-6.48,2.28-11.04l0.12-1.32l0.24-1.44l0.24-0.84l0.12-0.6c1.28-10.48,2.64-19.84,4.08-28.08l0.72-2.88
		c0.24-0.8,0.4-1.54,0.48-2.22c0.08-0.68,0.16-1.26,0.24-1.74c-0.96-0.08-2.44-0.04-4.44,0.12c-0.88,0.08-2,0.12-3.36,0.12
		c-0.08-0.24-0.3-0.62-0.66-1.14c-0.36-0.52-0.54-1.18-0.54-1.98c0-2,1.8-3,5.4-3c2.24,0,4.66,0.08,7.26,0.24
		c2.6,0.16,4.54,0.32,5.82,0.48c1.28,0.24,2.38,0.74,3.3,1.5c0.92,0.76,1.38,1.7,1.38,2.82v4.2c0,4.4,0.04,8,0.12,10.8v2.88
		c0.24,8.16,0.36,16.76,0.36,25.8c0.08,10.16,0.4,19.2,0.96,27.12V531.31z"/>
	<path d="M1052.41,488.35c0,4.32,0.04,7.88,0.12,10.68c0.08,4.72-0.4,10.68-1.44,17.88c-1.04,7.2-2.2,11.76-3.48,13.68
		c-1.28,2.08-2.8,3.58-4.56,4.5c-1.76,0.92-3.88,1.38-6.36,1.38c-3.12,0-5.98-0.74-8.58-2.22c-2.6-1.48-4.34-3.58-5.22-6.3
		c-0.16-0.4-0.44-1.22-0.84-2.46c-0.4-1.24-0.7-2.38-0.9-3.42c-0.2-1.04-0.34-2.2-0.42-3.48c-0.16-3.04-0.24-5.2-0.24-6.48
		l0.12-7.32l0.36-11.64l0.12-11.52c0-5.92-0.12-10.96-0.36-15.12l-0.72-3.84c-0.4-1.28-0.6-2.44-0.6-3.48l-0.12-2.04l2.76-2.76
		c1.12,0,2.16,0.32,3.12,0.96c0.96,0.64,1.48,1.4,1.56,2.28c0.08,0.72,0.12,2.16,0.12,4.32c0,2.48-0.04,4.48-0.12,6
		c0,4.16,0.04,7,0.12,8.52l0.12,3.48v3.48v0.84c0.08,0.56,0.12,1.44,0.12,2.64c0,1.44-0.12,3.72-0.36,6.84
		c-0.16,3.68-0.24,6.04-0.24,7.08l0.12,3.72c0.64-0.16,1.28-0.44,1.92-0.84c1.6-1.04,2.8-2.6,3.6-4.68c0.8-2.08,1.3-4.74,1.5-7.98
		c0.2-3.24,0.3-7.86,0.3-13.86v-10.56v-8.76c0-0.8,0.14-1.38,0.42-1.74c0.28-0.36,1.1-0.86,2.46-1.5c1.28,0,2.16,0.14,2.64,0.42
		c0.48,0.28,0.76,0.58,0.84,0.9c0.08,0.32,0.12,1,0.12,2.04c0,4.08-0.16,7.28-0.48,9.6c-0.24,2.64-0.36,4.64-0.36,6l-0.24,4.92
		c-0.24,2.24-0.36,3.92-0.36,5.04c0,0.4,0.04,0.76,0.12,1.08v0.96c0,5.52-0.32,9.82-0.96,12.9c-0.64,3.08-1.82,5.48-3.54,7.2
		c-1.72,1.72-4.3,3.06-7.74,4.02l0.72,11.76c0.16,3.04,1.04,5.6,2.64,7.68c1.6,2.08,3.44,3.12,5.52,3.12c1.84,0,3.4-0.84,4.68-2.52
		c1.28-1.68,2.16-3.84,2.64-6.48c0.64-3.36,1.36-7.62,2.16-12.78c0.8-5.16,1.12-8.18,0.96-9.06c0-2.64-0.04-4.76-0.12-6.36
		c0-4.88-0.04-9.16-0.12-12.84c-0.08-1.52-0.12-3.6-0.12-6.24c0-2.48,0.08-5.24,0.24-8.28l0.12-5.28c0-2.56,0.3-4.5,0.9-5.82
		c0.6-1.32,1.46-1.98,2.58-1.98c0.96,0,1.8,0.38,2.52,1.14c0.72,0.76,1.08,1.62,1.08,2.58c0,1.04-0.28,1.84-0.84,2.4
		c0,0.64-0.06,1.7-0.18,3.18c-0.12,1.48-0.18,2.94-0.18,4.38c0,3.2,0.04,5.32,0.12,6.36v3.12L1052.41,488.35z"/>
</g>
</svg>
